<svg xmlns="http://www.w3.org/2000/svg" xmlns:xlink="http://www.w3.org/1999/xlink" width="260" height="413.523" viewBox="0 0 260 413.523">
  <defs>
    <clipPath id="clip-path">
      <rect id="Rectangle_5104" data-name="Rectangle 5104" width="166.92" height="340.93" fill="none"/>
    </clipPath>
    <clipPath id="clip-path-3">
      <rect id="Rectangle_5098" data-name="Rectangle 5098" width="25.681" height="16.26" fill="none"/>
    </clipPath>
    <clipPath id="clip-path-4">
      <rect id="Rectangle_5099" data-name="Rectangle 5099" width="3.42" height="7.044" fill="none"/>
    </clipPath>
    <clipPath id="clip-path-5">
      <rect id="Rectangle_5100" data-name="Rectangle 5100" width="7.31" height="5.173" fill="none"/>
    </clipPath>
    <clipPath id="clip-path-6">
      <rect id="Rectangle_5101" data-name="Rectangle 5101" width="33.332" height="3.52" fill="none"/>
    </clipPath>
    <clipPath id="clip-path-7">
      <rect id="Rectangle_5102" data-name="Rectangle 5102" width="92.792" height="121.125" fill="none"/>
    </clipPath>
  </defs>
  <g id="Group_9285" data-name="Group 9285" transform="translate(-188 -108.477)">
    <g id="Group_9269" data-name="Group 9269" transform="translate(234.001 108.477)">
      <g id="Group_9253" data-name="Group 9253" clip-path="url(#clip-path)">
        <g id="Group_9252" data-name="Group 9252">
          <g id="Group_9251" data-name="Group 9251" clip-path="url(#clip-path)">
            <path id="Path_6180" data-name="Path 6180" d="M15.371,306.887l-.73,2.75s-9.981,16.237-8.8,17.753a6.36,6.36,0,0,0,6.92,2.162c3.472-.869,18.128-14.789,18.128-14.789l.837-2.226Z" transform="translate(0.208 11.091)" fill="#e8505b"/>
            <g id="Group_9238" data-name="Group 9238" transform="translate(5.821 324.67)" opacity="0.3">
              <g id="Group_9237" data-name="Group 9237">
                <g id="Group_9236" data-name="Group 9236" clip-path="url(#clip-path-3)">
                  <path id="Path_6181" data-name="Path 6181" d="M6.841,323.481s4.325-1.913,6.815,3.669c0,0,1.873-.7,7.053-5.035s10.185-8.58,10.185-8.58.536-.426.375,0-.374,1.175-.374,1.175l-10,8.822s-5.99,5.135-7.493,5.546-3.018.916-4.93.062a5.323,5.323,0,0,1-2.848-2.468c0-.258,1.223-3.191,1.223-3.191" transform="translate(-5.618 -313.346)"/>
                </g>
              </g>
            </g>
            <path id="Path_6182" data-name="Path 6182" d="M14.185,328.645c-.054.011-.161-.552-.529-1.381a7.827,7.827,0,0,0-2.092-2.8A7.822,7.822,0,0,0,8.441,322.9c-.882-.217-1.455-.223-1.454-.278a3.608,3.608,0,0,1,1.5.054,7.119,7.119,0,0,1,5.38,4.5,3.609,3.609,0,0,1,.317,1.468" transform="translate(0.253 11.657)" fill="#263238"/>
            <path id="Path_6183" data-name="Path 6183" d="M31.719,312.846a1.253,1.253,0,0,1-.229.235l-.7.625-2.6,2.253L19.517,323.3a36.755,36.755,0,0,1-4.992,3.8,8.068,8.068,0,0,1-4.963,1.178A5.018,5.018,0,0,1,6.5,326.717a2.956,2.956,0,0,1-.665-1.08,6.664,6.664,0,0,0,.757.993,5,5,0,0,0,3,1.412,7.938,7.938,0,0,0,4.788-1.209,38.385,38.385,0,0,0,4.934-3.786l8.729-7.263,2.67-2.174.737-.578a1.293,1.293,0,0,1,.271-.185" transform="translate(0.211 11.306)" fill="#263238"/>
            <path id="Path_6184" data-name="Path 6184" d="M15.687,319.52a11.266,11.266,0,0,1-1.846-1.148,11.287,11.287,0,0,1-1.794-1.23,5.6,5.6,0,0,1,1.971.958,5.6,5.6,0,0,1,1.669,1.42" transform="translate(0.435 11.461)" fill="#263238"/>
            <path id="Path_6185" data-name="Path 6185" d="M17.785,317.251a14.048,14.048,0,0,1-2.267-.939,14.081,14.081,0,0,1-2.224-1.036,7.114,7.114,0,0,1,2.354.74,7.156,7.156,0,0,1,2.137,1.235" transform="translate(0.48 11.393)" fill="#263238"/>
            <path id="Path_6186" data-name="Path 6186" d="M19.709,315.332c-.065.073-.968-.718-2.28-1.357s-2.483-.884-2.465-.98a5.307,5.307,0,0,1,2.608.69,5.3,5.3,0,0,1,2.137,1.647" transform="translate(0.541 11.31)" fill="#263238"/>
            <path id="Path_6187" data-name="Path 6187" d="M20.81,313.016c-.059.076-.9-.536-2.058-1.048s-2.17-.74-2.153-.835a4.656,4.656,0,0,1,2.286.54,4.652,4.652,0,0,1,1.925,1.343" transform="translate(0.6 11.243)" fill="#263238"/>
            <path id="Path_6188" data-name="Path 6188" d="M20.287,310.916a4.05,4.05,0,0,1-1.234-.825,9.08,9.08,0,0,1-1.128-1.157,9.5,9.5,0,0,1-.567-.773,2.046,2.046,0,0,1-.257-.473.638.638,0,0,1,.106-.642,1.033,1.033,0,0,1,1.131-.13,2.391,2.391,0,0,1,.824.568,3.1,3.1,0,0,1,.758,1.464,4.383,4.383,0,0,1,.1,1.091c-.009.257-.035.4-.056.4-.06,0-.033-.574-.267-1.43a3.023,3.023,0,0,0-.749-1.313,2.16,2.16,0,0,0-.727-.482.754.754,0,0,0-.774.051c-.161.161-.006.461.176.726s.353.524.534.759a11.219,11.219,0,0,0,1.05,1.174c.648.626,1.109.951,1.08.994" transform="translate(0.616 11.088)" fill="#263238"/>
            <path id="Path_6189" data-name="Path 6189" d="M19.974,310.6c-.017-.006.007-.152.111-.4a3.867,3.867,0,0,1,.593-.951,4.335,4.335,0,0,1,1.308-1.041,4.176,4.176,0,0,1,.939-.35,1.294,1.294,0,0,1,.578,0,.629.629,0,0,1,.472.466,1.321,1.321,0,0,1-.429,1.059,3.812,3.812,0,0,1-.753.659,3.929,3.929,0,0,1-1.555.618,3.392,3.392,0,0,1-1.122.006c-.262-.044-.4-.1-.393-.121a7.93,7.93,0,0,0,1.47-.11,3.994,3.994,0,0,0,1.431-.638,3.774,3.774,0,0,0,.682-.62,1.084,1.084,0,0,0,.354-.78c-.042-.24-.376-.29-.672-.225a4.084,4.084,0,0,0-.868.307,4.489,4.489,0,0,0-1.271.926,10.888,10.888,0,0,0-.873,1.195" transform="translate(0.713 11.124)" fill="#263238"/>
            <path id="Path_6190" data-name="Path 6190" d="M28.249,311.6a2.449,2.449,0,0,0-1.407.075,5.2,5.2,0,0,0-2.514,2.29,5.576,5.576,0,0,0-.666,3.355c.1.893.342,1.415.29,1.435a3.08,3.08,0,0,1-.516-1.4,5.367,5.367,0,0,1,.609-3.546,5.043,5.043,0,0,1,2.725-2.349,1.525,1.525,0,0,1,1.479.143" transform="translate(0.844 11.252)" fill="#263238"/>
            <path id="Path_6191" data-name="Path 6191" d="M22.5,317.906a8.7,8.7,0,0,1-1.689,1.649,8.659,8.659,0,0,1-1.9,1.4,8.747,8.747,0,0,1,1.689-1.647,8.691,8.691,0,0,1,1.9-1.4" transform="translate(0.683 11.489)" fill="#263238"/>
            <path id="Path_6192" data-name="Path 6192" d="M24.285,316.887c.089-.006.208.205.265.473s.033.509-.051.54-.2-.181-.265-.472-.038-.534.051-.54" transform="translate(0.875 11.452)" fill="#263238"/>
            <path id="Path_6193" data-name="Path 6193" d="M24.537,314.914c.084.031.1.274.039.541s-.188.477-.277.467-.107-.252-.038-.541.192-.5.276-.467" transform="translate(0.875 11.381)" fill="#263238"/>
            <path id="Path_6194" data-name="Path 6194" d="M25.607,313.234c.069.073-.059.264-.212.492s-.359.361-.435.315,0-.278.183-.517.411-.348.464-.29" transform="translate(0.901 11.319)" fill="#263238"/>
            <path id="Path_6195" data-name="Path 6195" d="M27.308,312.2c.028.085-.151.25-.4.367s-.49.15-.538.075.13-.239.4-.367.51-.16.538-.075" transform="translate(0.953 11.281)" fill="#263238"/>
            <path id="Path_6196" data-name="Path 6196" d="M29.283,311.968c-.011.089-.242.164-.516.166s-.507-.069-.519-.158.22-.163.517-.166.529.07.518.159" transform="translate(1.021 11.268)" fill="#263238"/>
            <path id="Path_6197" data-name="Path 6197" d="M149.258,58.7c-.636.776-1.556,9.005-1.556,9.005s-15.177,25.864-17.293,26.261S119.092,76,119.092,76l-9.461,8.7s4.933,23.147,20.352,27.118c7.28,1.874,19.971-21.207,28.452-40.378.136-.307,4.523-10.749,4.523-10.749Z" transform="translate(3.962 2.122)" fill="#ffbe9d"/>
            <path id="Path_6198" data-name="Path 6198" d="M161.14,61.563c.016.02,0,.113-.052.262-.4,1.238-2.745,6.364-3.471,6.308-.815-.064-2.4-1.244-2.223-1.978s3.15-6.36,3.15-6.36.526-.86,2.162-.4c1.011.282.433,2.172.433,2.172" transform="translate(5.615 2.142)" fill="#ffbe9d"/>
            <path id="Path_6199" data-name="Path 6199" d="M158.942,58.456c.016.02,0,.112-.052.262-.4,1.237-2.745,6.364-3.471,6.307-.815-.063-2.4-1.243-2.223-1.977s3.15-6.36,3.15-6.36.526-.86,2.162-.4c1.011.282.433,2.172.433,2.172" transform="translate(5.536 2.029)" fill="#ffbe9d"/>
            <path id="Path_6200" data-name="Path 6200" d="M156.413,56.274c.016.02,0,.113-.052.262-.4,1.237-2.745,6.364-3.471,6.307-.815-.063-2.4-1.243-2.223-1.977s3.15-6.36,3.15-6.36.526-.86,2.162-.4c1.011.282.433,2.172.433,2.172" transform="translate(5.444 1.95)" fill="#ffbe9d"/>
            <path id="Path_6201" data-name="Path 6201" d="M153.876,54.153c.016.02,0,.112-.052.262-.4,1.237-2.745,6.364-3.471,6.307-.815-.063-2.4-1.243-2.223-1.977s3.15-6.36,3.15-6.36.526-.86,2.162-.4c1.011.282.433,2.172.433,2.172" transform="translate(5.353 1.874)" fill="#ffbe9d"/>
            <path id="Path_6202" data-name="Path 6202" d="M156.012,64.62a11.116,11.116,0,0,0,1.348-2.4,10.47,10.47,0,0,0,1.014-2.521,11.077,11.077,0,0,0-1.348,2.406,10.5,10.5,0,0,0-1.014,2.52" transform="translate(5.638 2.157)" fill="#7c4435"/>
            <path id="Path_6203" data-name="Path 6203" d="M153.069,63.417a21.7,21.7,0,0,0,1.862-3.444,21.694,21.694,0,0,0,1.543-3.6,21.657,21.657,0,0,0-1.862,3.443,21.682,21.682,0,0,0-1.543,3.6" transform="translate(5.531 2.037)" fill="#7c4435"/>
            <g id="Group_9241" data-name="Group 9241" transform="translate(155.615 56.794)" opacity="0.78">
              <g id="Group_9240" data-name="Group 9240">
                <g id="Group_9239" data-name="Group 9239" clip-path="url(#clip-path-4)">
                  <path id="Path_6204" data-name="Path 6204" d="M150.194,61.856a21.7,21.7,0,0,0,1.862-3.444,21.692,21.692,0,0,0,1.543-3.6,21.6,21.6,0,0,0-1.862,3.443,21.678,21.678,0,0,0-1.543,3.6" transform="translate(-150.187 -54.813)" fill="#7c4435"/>
                </g>
              </g>
            </g>
            <path id="Path_6205" data-name="Path 6205" d="M147.946,68.964l-1.035-4.547a7.9,7.9,0,0,1,.929-5.82l.8-1.335,9.918,5.012s-2.475,3.227-4.97,1.325l1.82,3.921Z" transform="translate(5.302 2.069)" fill="#ffbe9d"/>
            <path id="Path_6206" data-name="Path 6206" d="M154.459,67.864c-.061-.007.045-.526-.094-1.409a5.055,5.055,0,0,0-1.784-3.109l-.947-.763,1.16.375,2.572.833-.056-.012a3.012,3.012,0,0,0,2.976-1.235,1.793,1.793,0,0,0,.117-.23l.143.337c-2.865-1.3-5.435-2.512-7.237-3.495a16.015,16.015,0,0,1-2.829-1.73,28.055,28.055,0,0,1,3,1.395c1.838.893,4.42,2.043,7.289,3.339l.232.1-.09.232a2.12,2.12,0,0,1-.163.325,3.033,3.033,0,0,1-1.6,1.281,4.279,4.279,0,0,1-1.885.185l-.029,0-.027-.009-2.552-.89.213-.388a5.085,5.085,0,0,1,1.757,3.425,2.7,2.7,0,0,1-.163,1.441" transform="translate(5.366 2.075)" fill="#eb996e"/>
            <path id="Path_6207" data-name="Path 6207" d="M156.782,63.355c.1.011-.088.553.038,1.288a.951.951,0,0,0,.752.792,1.428,1.428,0,0,0,1.209-.763c.659-1.045,1.326-2,1.728-2.694s.622-1.17.7-1.143-.021.541-.359,1.316a23.475,23.475,0,0,1-1.628,2.832,1.858,1.858,0,0,1-1.713.945,1.335,1.335,0,0,1-1.065-1.221,2.264,2.264,0,0,1,.147-1.027c.085-.223.155-.335.191-.325" transform="translate(5.653 2.198)" fill="#eb996e"/>
            <path id="Path_6208" data-name="Path 6208" d="M117.773,129.717s-8.452-20.8-8.41-21.188l2.186-7.737.887-4.479,2.856,3.32,13.957-14.585c.257.351-6.317-9.2-12.981-18.542-4.645-6.514-9.67-7.944-12.607-8.151a20.158,20.158,0,0,0-3.739-.765l-24.019-.2a22.734,22.734,0,0,0-14.334,5.255c-1.108.91-10.312,13.143-16.583,25.242L64.3,101.828l3.184-5.6.013.112c.267,1.9,1.41,7.436,1.788,9.318,1.171,5.838,1.54,12.862-1.3,17.681a147.036,147.036,0,0,0-5.536,16.524h59.26s-1.911-5.141-3.937-10.145" transform="translate(1.626 2.074)" fill="#e89f33"/>
            <path id="Path_6209" data-name="Path 6209" d="M70.426,119.923l-2.035-1.635c-.011-.117-.018-.187-.018-.187l-.083.106L54.878,107.429l5.753-9.482L46.746,87.807c.063.673-12.885,19.858-11.134,23.626,2.477,5.329,19.3,15.98,26.18,20.178a43.8,43.8,0,0,0-5.56,1.094c-1.753.577,3.964,2.092,5.346,2.372.544.111,1.651-.749,2.832-1.89l.318.188.371-.875a39.741,39.741,0,0,0,3.527-4.121c.288-.447.275-2.471.169-4.607Z" transform="translate(1.281 3.173)" fill="#a56959"/>
            <path id="Path_6210" data-name="Path 6210" d="M141.59,312.393l-.075-1.961-19.866.574.172,6.468,1.229.04c5.466.135,27.8.328,31.419-.8,4.034-1.257-12.879-4.324-12.879-4.324" transform="translate(4.396 11.219)" fill="#e8505b"/>
            <g id="Group_9244" data-name="Group 9244" transform="translate(126.074 323.255)" opacity="0.3">
              <g id="Group_9243" data-name="Group 9243">
                <g id="Group_9242" data-name="Group 9242" clip-path="url(#clip-path-5)">
                  <path id="Path_6211" data-name="Path 6211" d="M128.987,317.08a6.352,6.352,0,0,0-2.645-3.852,7.035,7.035,0,0,0-4.665-1.212l.155,5.138Z" transform="translate(-121.677 -311.981)"/>
                </g>
              </g>
            </g>
            <g id="Group_9247" data-name="Group 9247" transform="translate(126.218 325.382)" opacity="0.3">
              <g id="Group_9246" data-name="Group 9246">
                <g id="Group_9245" data-name="Group 9245" clip-path="url(#clip-path-6)">
                  <path id="Path_6212" data-name="Path 6212" d="M149.857,314.034s5.939,1.422,5.231,2.343-23.287,1.516-33.272.967l.02-.411,26.345-.484s.526-2.339,1.676-2.414" transform="translate(-121.816 -314.033)"/>
                </g>
              </g>
            </g>
            <path id="Path_6213" data-name="Path 6213" d="M121.534,316.857a1.828,1.828,0,0,0,.341.025l.978.03,3.6.049c3.039.022,7.238,0,11.874-.118s8.832-.312,11.865-.489l3.59-.233.975-.08A1.788,1.788,0,0,0,155.1,316a2,2,0,0,0-.342,0l-.977.037-3.594.163c-3.034.137-7.228.3-11.863.424s-8.829.165-11.867.183l-3.6.022-.978.012a1.993,1.993,0,0,0-.342.02" transform="translate(4.392 11.42)" fill="#263238"/>
            <path id="Path_6214" data-name="Path 6214" d="M147.265,316.741a7.222,7.222,0,0,1,.623-1.613,7.726,7.726,0,0,1,1.186-1.311,2.616,2.616,0,0,0-1.395,1.2,2.331,2.331,0,0,0-.414,1.724" transform="translate(5.321 11.341)" fill="#263238"/>
            <path id="Path_6215" data-name="Path 6215" d="M141.551,314.185c.057.031.326-.291.6-.722s.453-.8.4-.835-.326.291-.6.721-.453.805-.4.836" transform="translate(5.115 11.298)" fill="#263238"/>
            <path id="Path_6216" data-name="Path 6216" d="M139.983,313.449c.046.045.352-.157.684-.451s.565-.568.519-.612-.352.158-.684.451-.565.568-.519.612" transform="translate(5.059 11.289)" fill="#263238"/>
            <path id="Path_6217" data-name="Path 6217" d="M138.955,311.766a4.828,4.828,0,0,0,2.067-.033,4.872,4.872,0,0,0-2.067.033" transform="translate(5.022 11.262)" fill="#263238"/>
            <path id="Path_6218" data-name="Path 6218" d="M138.583,310.591a2.1,2.1,0,0,0,1.16.281,2.142,2.142,0,0,0,1.185-.178,101.591,101.591,0,0,1-2.346-.1" transform="translate(5.008 11.224)" fill="#263238"/>
            <path id="Path_6219" data-name="Path 6219" d="M142.152,312.626a3.943,3.943,0,0,0,1.27-.041,7.972,7.972,0,0,0,1.345-.312,3.875,3.875,0,0,0,.766-.318.646.646,0,0,0,.3-.375.453.453,0,0,0-.207-.467,2.434,2.434,0,0,0-2.863.71,2.041,2.041,0,0,0-.391.8.63.63,0,0,0-.024.32,3.246,3.246,0,0,1,.549-1.024,2.288,2.288,0,0,1,1.065-.684,2.1,2.1,0,0,1,1.518.056c.206.134.134.356-.087.486a3.891,3.891,0,0,1-.706.3,9.221,9.221,0,0,1-1.3.351c-.757.145-1.241.159-1.24.2" transform="translate(5.137 11.236)" fill="#263238"/>
            <path id="Path_6220" data-name="Path 6220" d="M142.531,312.693a1.1,1.1,0,0,0,.121-.825,1.858,1.858,0,0,0-.373-.854,1.293,1.293,0,0,0-1.077-.574.469.469,0,0,0-.375.555,1.264,1.264,0,0,0,.232.522,3.636,3.636,0,0,0,.623.7,1.857,1.857,0,0,0,.741.459c.022-.029-.259-.205-.621-.57a4.166,4.166,0,0,1-.554-.7c-.181-.246-.315-.69,0-.752a1.151,1.151,0,0,1,.853.479,1.889,1.889,0,0,1,.382.759,4.011,4.011,0,0,1,.046.8" transform="translate(5.089 11.219)" fill="#263238"/>
            <path id="Path_6221" data-name="Path 6221" d="M121.776,311.967c.005.042.565-.065,1.462.009a6.693,6.693,0,0,1,3.224,1.138,5.99,5.99,0,0,1,2.072,2.564c.325.781.371,1.31.415,1.3a1,1,0,0,0-.01-.371,4.6,4.6,0,0,0-.246-.986,5.713,5.713,0,0,0-2.088-2.689,6.418,6.418,0,0,0-3.357-1.117,5.584,5.584,0,0,0-1.087.055,1.2,1.2,0,0,0-.386.093" transform="translate(4.401 11.269)" fill="#263238"/>
            <path id="Path_6222" data-name="Path 6222" d="M131.082,315.113a17.461,17.461,0,0,0,5.781-.1c-.008-.065-1.3.043-2.89.068s-2.886-.032-2.891.032" transform="translate(4.737 11.383)" fill="#263238"/>
            <path id="Path_6223" data-name="Path 6223" d="M127.34,315.2c-.047.047.113.252.254.523s.22.515.288.509.092-.293-.073-.606-.428-.471-.469-.426" transform="translate(4.602 11.391)" fill="#263238"/>
            <path id="Path_6224" data-name="Path 6224" d="M125.881,313.608c-.046.045.088.232.3.42s.418.3.464.259-.088-.232-.3-.42-.419-.3-.464-.259" transform="translate(4.549 11.333)" fill="#263238"/>
            <path id="Path_6225" data-name="Path 6225" d="M123.841,312.92c.016.062.279.053.572.141s.507.226.557.182-.122-.293-.487-.4-.664.017-.642.073" transform="translate(4.475 11.304)" fill="#263238"/>
            <path id="Path_6226" data-name="Path 6226" d="M122.394,312.6c-.022.058.094.149.26.2s.318.053.341-.005-.094-.15-.26-.205-.319-.052-.341.006" transform="translate(4.423 11.295)" fill="#263238"/>
            <path id="Path_6227" data-name="Path 6227" d="M85.849,10.344A7.237,7.237,0,0,0,77.4,9.69c-1.273.815-2.281,2.038-3.654,2.669-2.286,1.051-4.979.231-7.461.63a7.88,7.88,0,0,0-6.4,7.913c.1,1.991.956,4.134-.015,5.876-.855,1.531-2.766,2.065-4.127,3.171a5.9,5.9,0,0,0-.819,8.013,29.505,29.505,0,0,1,2.331,2.494c.977,1.519.838,3.464,1.085,5.253s1.284,3.81,3.086,3.927c1.453.1,2.756-1.123,4.208-1.005,2.035.167,2.867,2.6,4.044,4.274a7.248,7.248,0,0,0,6.75,2.94c1.851-.252,3.682-1.23,5.493-.771,2.275.578,3.642,3.245,5.966,3.579,1.73.248,3.331-.9,4.615-2.088s2.59-2.539,4.31-2.847c2.07-.371,4.063.881,6.146,1.167a6.949,6.949,0,0,0,6.85-3.437c1.146-2.075,1.142-4.622,2.212-6.738a37.919,37.919,0,0,1,2.762-3.871,5.205,5.205,0,0,0,1-4.479c-.376-1.077-1.288-1.89-1.73-2.941-.662-1.574-.176-3.36,0-5.058s-.174-3.758-1.73-4.46a15.889,15.889,0,0,1-1.994-.664c-1.211-.753-1.147-2.483-1.259-3.9a6.5,6.5,0,0,0-2.94-5.224c-1.812-1.023-4.491-.524-5.411,1.342" transform="translate(1.942 0.312)" fill="#263238"/>
            <path id="Path_6228" data-name="Path 6228" d="M73.6,29.461a13.5,13.5,0,0,1,7.269-19.142,21.341,21.341,0,0,1,8.13-.948,16.981,16.981,0,0,1,6.845,1.4,7.407,7.407,0,0,1,4.239,5.275" transform="translate(2.601 0.337)" fill="#e8505b"/>
            <path id="Path_6229" data-name="Path 6229" d="M86.34,71.178h0a9.519,9.519,0,0,0,10.239-9.126c.2-5.182.373-10.419.373-10.419s7.851-.735,8.421-8.506.309-25.708.309-25.708a27.076,27.076,0,0,0-27.363,1.759l-1.206.816.44,41.795a9.517,9.517,0,0,0,8.787,9.388" transform="translate(2.787 0.525)" fill="#ffbe9d"/>
            <path id="Path_6230" data-name="Path 6230" d="M101.129,30.582a1.131,1.131,0,1,1,1.6.02,1.131,1.131,0,0,1-1.6-.02" transform="translate(3.643 1.036)" fill="#263238"/>
            <path id="Path_6231" data-name="Path 6231" d="M104.178,29.291c-.13.127-.858-.507-1.928-.577-1.069-.086-1.882.435-1.991.291-.055-.065.082-.3.436-.538a2.643,2.643,0,0,1,3.129.229c.317.286.418.539.354.595" transform="translate(3.623 1.014)" fill="#263238"/>
            <path id="Path_6232" data-name="Path 6232" d="M91.381,29.108a1.131,1.131,0,1,1-1.576.276,1.131,1.131,0,0,1,1.576-.276" transform="translate(3.238 1.044)" fill="#263238"/>
            <path id="Path_6233" data-name="Path 6233" d="M92.9,29.531a2.2,2.2,0,0,0-1.928-.577c-1.069-.086-1.882.435-1.991.291-.055-.065.082-.3.436-.538a2.643,2.643,0,0,1,3.129.229c.317.286.418.539.354.595" transform="translate(3.215 1.023)" fill="#263238"/>
            <path id="Path_6234" data-name="Path 6234" d="M96.442,37.84a5.217,5.217,0,0,1,1.754-.262c.282-.012.506-.063.536-.212a1.533,1.533,0,0,0-.152-.814c-.232-.725-.467-1.459-.714-2.228-.981-3.172-1.646-5.783-1.485-5.832s1.086,2.481,2.067,5.652c.231.774.452,1.512.669,2.242a1.791,1.791,0,0,1,.082,1.174.737.737,0,0,1-.51.418,1.812,1.812,0,0,1-.482.033,5.215,5.215,0,0,1-1.766-.17" transform="translate(3.482 1.03)" fill="#263238"/>
            <path id="Path_6235" data-name="Path 6235" d="M96.626,50.353a18.122,18.122,0,0,1-9.964-3.5s2.056,5.742,9.858,5.514Z" transform="translate(3.132 1.693)" fill="#eb996e"/>
            <path id="Path_6236" data-name="Path 6236" d="M83.965,14.869a7.324,7.324,0,0,0,6.227,6.407c1.912.228,3.978-.3,5.7.565A10.026,10.026,0,0,1,98.8,24.766c.877,1.072,2.055,2.1,3.439,2.059a9.5,9.5,0,0,0,1.948-.46,2.286,2.286,0,0,1,1.927.207,15.006,15.006,0,0,0,1.149-7.24,6.674,6.674,0,0,0-4.292-5.547c-1.544-.46-3.213-.167-4.8-.441a15.788,15.788,0,0,1-3.727-1.374A11.676,11.676,0,0,0,88.032,10.6c-2.19.332-4.3,2.137-4.245,4.352" transform="translate(3.028 0.38)" fill="#263238"/>
            <path id="Path_6237" data-name="Path 6237" d="M77.787,36.109c2.817,2.264,6.213-3.6,7.719-7.28a36.079,36.079,0,0,0,2.186-11.754,5.827,5.827,0,0,0-.683-3.787c-.807-1.09-1.166.25-2.044-.775-1.726-2.012-4.922-.926-6.495-.243-2.62,1.139-4.261,4.064-4.778,7.037a29.153,29.153,0,0,0,.328,9.022q.291,2.048.58,4.1a6.7,6.7,0,0,0,.811,2.77,1.979,1.979,0,0,0,2.374.915" transform="translate(2.655 0.41)" fill="#263238"/>
            <path id="Path_6238" data-name="Path 6238" d="M77.716,29.118a1.175,1.175,0,0,0-1.123-1.176c-1.451-.038-3.823.539-4.043,4.543-.314,5.719,5.187,4.289,5.206,4.125.015-.127-.023-5.27-.039-7.492" transform="translate(2.621 1.01)" fill="#ffbe9d"/>
            <path id="Path_6239" data-name="Path 6239" d="M76.44,34.3c-.024-.02-.1.064-.276.133a1,1,0,0,1-.746-.026,2.47,2.47,0,0,1-1.02-2.274,3.3,3.3,0,0,1,.357-1.412A1.153,1.153,0,0,1,75.548,30a.507.507,0,0,1,.573.306c.067.164.025.276.055.287s.127-.089.1-.327a.638.638,0,0,0-.206-.371.756.756,0,0,0-.543-.176,1.4,1.4,0,0,0-1.089.83A3.391,3.391,0,0,0,74,32.12a2.59,2.59,0,0,0,1.318,2.55,1.07,1.07,0,0,0,.919-.1c.185-.132.223-.258.2-.269" transform="translate(2.674 1.074)" fill="#eb996e"/>
            <path id="Path_6240" data-name="Path 6240" d="M93.806,38.868a1.521,1.521,0,1,0,.124-.183" transform="translate(3.383 1.378)" fill="#e8505b"/>
            <path id="Path_6241" data-name="Path 6241" d="M97.4,39.971a2.989,2.989,0,0,1-2.425-.081c-1.317-.464-2.037-1.386-1.926-1.473.109-.114.921.552,2.108.966,1.18.432,2.231.431,2.243.589" transform="translate(3.362 1.388)" fill="#263238"/>
            <path id="Path_6242" data-name="Path 6242" d="M83.308,10.782c-2.116-.3-3.628-2.363-3.983-4.47A14.937,14.937,0,0,1,80.073,0a9.046,9.046,0,0,1,3.042,11.223" transform="translate(2.863 0)" fill="#e8505b"/>
            <path id="Path_6243" data-name="Path 6243" d="M83.171,10.27a3.7,3.7,0,0,1,1.77-4.1,7.624,7.624,0,0,1,4.665-.823.787.787,0,0,1,.4.108.718.718,0,0,1,.241.492A3.978,3.978,0,0,1,88.013,9.8a11.663,11.663,0,0,1-4.584,1.078,1.382,1.382,0,0,1-.734-.063.477.477,0,0,1-.259-.612" transform="translate(2.978 0.192)" fill="#e8505b"/>
            <path id="Path_6244" data-name="Path 6244" d="M110.96,20.326c-.026,0-.036-.11-.139-.271a.976.976,0,0,0-.7-.391.871.871,0,0,0-.991.556,1.232,1.232,0,0,0,.642,1.377,1.493,1.493,0,0,0,1.76-.567,2.372,2.372,0,0,0,.157-2.276,4.032,4.032,0,0,0-4.635-2.3l-.316.1-1.438.45,1.18-.916a2.336,2.336,0,0,0,.68-2.481,2.907,2.907,0,0,0-1.768-1.791,4.972,4.972,0,0,0-4.37.641c-.568.341-1.042.744-1.527,1.022a2.759,2.759,0,0,1-1.369.424c-.826,0-1.142-.436-1.109-.435a2.048,2.048,0,0,0,1.1.228,2.647,2.647,0,0,0,1.223-.471c.442-.282.9-.7,1.483-1.086a6.634,6.634,0,0,1,2.094-.926,4.472,4.472,0,0,1,2.657.144,3.389,3.389,0,0,1,2.092,2.1,2.85,2.85,0,0,1-.855,3.061l-.258-.467.366-.114a4.509,4.509,0,0,1,5.238,2.64,2.815,2.815,0,0,1-.269,2.727,1.888,1.888,0,0,1-2.291.63,1.551,1.551,0,0,1-.75-1.814,1.016,1.016,0,0,1,.605-.615,1.278,1.278,0,0,1,.7-.049,1.049,1.049,0,0,1,.764.545c.085.207.053.325.044.324" transform="translate(3.506 0.4)" fill="#263238"/>
            <path id="Path_6245" data-name="Path 6245" d="M55.637,29.634a1.218,1.218,0,0,1,.561.033,2.22,2.22,0,0,1,1.277.977,2.282,2.282,0,0,1,.369,1.135,1.9,1.9,0,0,1-.481,1.349,2.434,2.434,0,0,1-1.457.766,2.222,2.222,0,0,1-1.789-.492,3.807,3.807,0,0,1-.62-3.993,5.617,5.617,0,0,1,3.214-3.4c.8-.307,1.637-.426,2.421-.673a2.934,2.934,0,0,0,1.874-1.393,4.12,4.12,0,0,0,.294-2.478,14.537,14.537,0,0,0-.727-2.631,8.822,8.822,0,0,1-.553-2.8,3.967,3.967,0,0,1,.994-2.645,4.941,4.941,0,0,1,2.3-1.454,6.456,6.456,0,0,1,2.578-.185c1.694.173,3.089,1.029,4.455,1.239a3.023,3.023,0,0,0,1.906-.262,5.522,5.522,0,0,0,1.427-1.183,8.241,8.241,0,0,1,2.529-2.21,4.836,4.836,0,0,1,2.513-.415,4.4,4.4,0,0,1,1.542.447,2.428,2.428,0,0,1,.359.213c.077.054.113.085.108.093a6.1,6.1,0,0,0-2.025-.544,4.722,4.722,0,0,0-2.364.479,8.141,8.141,0,0,0-2.379,2.195,5.817,5.817,0,0,1-1.515,1.294,3.438,3.438,0,0,1-2.167.337c-1.508-.227-2.864-1.05-4.445-1.187a4.986,4.986,0,0,0-4.423,1.491,3.438,3.438,0,0,0-.856,2.3,8.383,8.383,0,0,0,.529,2.631,14.826,14.826,0,0,1,.746,2.725,4.626,4.626,0,0,1-.359,2.8,3.451,3.451,0,0,1-2.188,1.638c-.843.257-1.669.369-2.4.646a5.176,5.176,0,0,0-2.969,3.085,3.434,3.434,0,0,0,.454,3.565,2.059,2.059,0,0,0,2.765-.195,1.808,1.808,0,0,0,.156-2.172,2.183,2.183,0,0,0-1.13-.981c-.333-.117-.528-.109-.527-.138" transform="translate(1.923 0.321)" fill="#263238"/>
            <path id="Path_6246" data-name="Path 6246" d="M87.379,34.231a.232.232,0,1,1,.166-.313.252.252,0,0,1-.166.313" transform="translate(3.145 1.221)" fill="#263238"/>
            <path id="Path_6247" data-name="Path 6247" d="M89.347,34.072a.3.3,0,1,1,.225-.336.287.287,0,0,1-.225.336" transform="translate(3.218 1.21)" fill="#263238"/>
            <path id="Path_6248" data-name="Path 6248" d="M91.135,34.484a.352.352,0,1,1,.311-.307.313.313,0,0,1-.311.307" transform="translate(3.285 1.222)" fill="#263238"/>
            <path id="Path_6249" data-name="Path 6249" d="M89.017,35.71a.255.255,0,1,1,.269-.255.262.262,0,0,1-.269.255" transform="translate(3.207 1.272)" fill="#263238"/>
            <path id="Path_6250" data-name="Path 6250" d="M101.478,34.73a.3.3,0,1,1,.226-.335.286.286,0,0,1-.226.335" transform="translate(3.656 1.233)" fill="#263238"/>
            <path id="Path_6251" data-name="Path 6251" d="M102.784,34.812c-.141-.048-.2-.257-.127-.468s.241-.344.382-.3.2.257.127.468-.242.344-.382.3" transform="translate(3.709 1.23)" fill="#263238"/>
            <path id="Path_6252" data-name="Path 6252" d="M102.129,36.614a.3.3,0,1,1,.312-.257.287.287,0,0,1-.312.257" transform="translate(3.683 1.302)" fill="#263238"/>
            <path id="Path_6253" data-name="Path 6253" d="M146.924,317.379,123.548,148.014l-.657-10.932-58.486-2.775-2.44,9.208C53.754,172.441,12.29,312.334,12.29,312.334l20.259,6.391,60.3-160.291L120.92,317.093Z" transform="translate(0.444 4.854)" fill="#263238"/>
            <path id="Path_6254" data-name="Path 6254" d="M116.168,135.46c-.148.015-.3-.32-.343-.747s.046-.785.194-.8.3.32.343.748-.046.784-.194.8" transform="translate(4.185 4.839)" fill="#455a64"/>
            <path id="Path_6255" data-name="Path 6255" d="M116.764,141.462c-.148.015-.338-.663-.424-1.514s-.034-1.553.114-1.568.338.663.423,1.514.035,1.553-.113,1.568" transform="translate(4.203 5.001)" fill="#455a64"/>
            <path id="Path_6256" data-name="Path 6256" d="M117.382,147.407c-.148.016-.341-.661-.43-1.512s-.041-1.553.107-1.569.341.662.43,1.513.041,1.552-.107,1.568" transform="translate(4.225 5.216)" fill="#455a64"/>
            <path id="Path_6257" data-name="Path 6257" d="M118.023,153.35c-.148.017-.343-.66-.436-1.51s-.048-1.553.1-1.569.344.66.436,1.51.048,1.552-.1,1.569" transform="translate(4.248 5.431)" fill="#455a64"/>
            <path id="Path_6258" data-name="Path 6258" d="M118.687,159.291c-.148.017-.346-.659-.441-1.509s-.053-1.552.1-1.569.345.659.441,1.509.053,1.552-.1,1.569" transform="translate(4.271 5.645)" fill="#455a64"/>
            <path id="Path_6259" data-name="Path 6259" d="M119.371,165.229c-.148.018-.348-.658-.447-1.507s-.059-1.552.089-1.57.348.658.447,1.508.059,1.551-.089,1.569" transform="translate(4.296 5.86)" fill="#455a64"/>
            <path id="Path_6260" data-name="Path 6260" d="M120.075,171.165c-.148.018-.35-.656-.452-1.506s-.063-1.552.085-1.57.35.657.452,1.506.063,1.552-.085,1.57" transform="translate(4.321 6.075)" fill="#455a64"/>
            <path id="Path_6261" data-name="Path 6261" d="M120.8,177.1c-.148.018-.352-.656-.456-1.5s-.067-1.551.08-1.57.352.656.456,1.5.068,1.551-.08,1.57" transform="translate(4.347 6.289)" fill="#455a64"/>
            <path id="Path_6262" data-name="Path 6262" d="M121.533,183.032c-.148.019-.353-.655-.459-1.5s-.073-1.551.076-1.57.353.655.459,1.5.073,1.551-.076,1.57" transform="translate(4.373 6.504)" fill="#455a64"/>
            <path id="Path_6263" data-name="Path 6263" d="M122.283,188.962c-.148.019-.355-.654-.463-1.5s-.076-1.551.073-1.57.355.654.463,1.5.076,1.551-.073,1.57" transform="translate(4.4 6.718)" fill="#455a64"/>
            <path id="Path_6264" data-name="Path 6264" d="M123.047,194.892c-.148.019-.356-.653-.466-1.5s-.079-1.551.069-1.57.356.653.466,1.5.079,1.552-.069,1.571" transform="translate(4.428 6.932)" fill="#455a64"/>
            <path id="Path_6265" data-name="Path 6265" d="M123.821,200.819c-.148.02-.357-.653-.468-1.5s-.082-1.551.066-1.571.357.653.468,1.5.082,1.551-.066,1.571" transform="translate(4.455 7.146)" fill="#455a64"/>
            <path id="Path_6266" data-name="Path 6266" d="M124.6,206.746c-.148.02-.358-.652-.47-1.5s-.084-1.551.063-1.571.359.652.471,1.5.084,1.551-.064,1.571" transform="translate(4.484 7.361)" fill="#455a64"/>
            <path id="Path_6267" data-name="Path 6267" d="M125.394,212.672c-.148.02-.36-.652-.472-1.5s-.086-1.551.062-1.571.36.652.472,1.5.086,1.551-.062,1.571" transform="translate(4.512 7.575)" fill="#455a64"/>
            <path id="Path_6268" data-name="Path 6268" d="M126.19,218.6c-.148.02-.36-.651-.474-1.5s-.087-1.551.06-1.571.361.651.475,1.5.086,1.551-.061,1.571" transform="translate(4.541 7.789)" fill="#455a64"/>
            <path id="Path_6269" data-name="Path 6269" d="M126.99,224.521c-.148.02-.361-.651-.475-1.5s-.088-1.551.059-1.571.361.651.476,1.5.087,1.551-.06,1.571" transform="translate(4.57 8.003)" fill="#455a64"/>
            <path id="Path_6270" data-name="Path 6270" d="M127.793,230.445c-.148.02-.361-.651-.476-1.5s-.088-1.551.06-1.571.36.651.475,1.5.089,1.551-.059,1.571" transform="translate(4.599 8.217)" fill="#455a64"/>
            <path id="Path_6271" data-name="Path 6271" d="M128.616,236.36c-.147.022-.365-.648-.485-1.494s-.1-1.55.049-1.57.365.65.485,1.494.1,1.548-.049,1.57" transform="translate(4.628 8.431)" fill="#455a64"/>
            <path id="Path_6272" data-name="Path 6272" d="M129.491,242.267c-.147.022-.369-.644-.494-1.489s-.109-1.548.038-1.57.369.645.5,1.49.108,1.547-.039,1.569" transform="translate(4.659 8.645)" fill="#455a64"/>
            <path id="Path_6273" data-name="Path 6273" d="M130.379,248.173c-.147.023-.37-.644-.5-1.49s-.111-1.55.036-1.571.37.644.5,1.49.111,1.55-.036,1.571" transform="translate(4.691 8.858)" fill="#455a64"/>
            <path id="Path_6274" data-name="Path 6274" d="M131.273,254.082c-.148.022-.371-.644-.5-1.489s-.112-1.548.035-1.571.37.644.5,1.49.113,1.547-.034,1.57" transform="translate(4.723 9.072)" fill="#455a64"/>
            <path id="Path_6275" data-name="Path 6275" d="M132.168,259.984c-.147.023-.371-.643-.5-1.488s-.113-1.547.034-1.57.371.645.5,1.489.113,1.547-.034,1.569" transform="translate(4.755 9.285)" fill="#455a64"/>
            <path id="Path_6276" data-name="Path 6276" d="M133.065,265.886c-.147.023-.371-.644-.5-1.489s-.113-1.547.034-1.57.371.644.5,1.489.113,1.547-.034,1.57" transform="translate(4.788 9.498)" fill="#455a64"/>
            <path id="Path_6277" data-name="Path 6277" d="M133.964,271.793c-.147.023-.371-.644-.5-1.49s-.114-1.548.034-1.571.371.645.5,1.49.113,1.548-.034,1.571" transform="translate(4.82 9.712)" fill="#455a64"/>
            <path id="Path_6278" data-name="Path 6278" d="M134.864,277.707c-.148.023-.371-.646-.5-1.492s-.114-1.55.033-1.573.371.646.5,1.492.114,1.55-.033,1.573" transform="translate(4.853 9.925)" fill="#455a64"/>
            <path id="Path_6279" data-name="Path 6279" d="M135.762,283.617c-.147.023-.371-.646-.5-1.49s-.113-1.55.034-1.572.371.645.5,1.49.113,1.549-.034,1.572" transform="translate(4.885 10.139)" fill="#455a64"/>
            <path id="Path_6280" data-name="Path 6280" d="M136.659,289.528c-.147.022-.371-.645-.5-1.491s-.113-1.549.035-1.571.37.644.5,1.49.113,1.549-.034,1.572" transform="translate(4.918 10.353)" fill="#455a64"/>
            <path id="Path_6281" data-name="Path 6281" d="M137.554,295.439c-.147.023-.371-.646-.5-1.491s-.112-1.549.035-1.572.37.646.5,1.491.112,1.55-.035,1.572" transform="translate(4.95 10.566)" fill="#455a64"/>
            <path id="Path_6282" data-name="Path 6282" d="M138.445,301.353c-.147.022-.37-.646-.5-1.492s-.111-1.55.036-1.572.37.646.5,1.492.111,1.55-.036,1.572" transform="translate(4.982 10.78)" fill="#455a64"/>
            <path id="Path_6283" data-name="Path 6283" d="M139.327,307.271c-.147.022-.369-.647-.494-1.494s-.108-1.551.039-1.573.369.647.494,1.494.108,1.551-.039,1.573" transform="translate(5.014 10.994)" fill="#455a64"/>
            <path id="Path_6284" data-name="Path 6284" d="M139.964,311.693c-.147.02-.315-.308-.375-.731s.012-.783.16-.805.316.307.375.732-.011.785-.16.805" transform="translate(5.044 11.209)" fill="#455a64"/>
            <path id="Path_6285" data-name="Path 6285" d="M30.478,308.024c.142.045.153.412.024.822s-.348.7-.491.659-.152-.412-.024-.822.349-.7.491-.659" transform="translate(1.08 11.131)" fill="#455a64"/>
            <path id="Path_6286" data-name="Path 6286" d="M32.341,302.236c.142.046.041.753-.224,1.581s-.595,1.461-.737,1.416-.042-.753.223-1.581.6-1.462.738-1.416" transform="translate(1.132 10.922)" fill="#455a64"/>
            <path id="Path_6287" data-name="Path 6287" d="M34.219,296.458c.142.047.037.753-.232,1.58s-.6,1.458-.745,1.412-.037-.753.232-1.58.6-1.459.745-1.412" transform="translate(1.199 10.713)" fill="#455a64"/>
            <path id="Path_6288" data-name="Path 6288" d="M36.128,290.689c.142.047.034.754-.24,1.579s-.61,1.456-.752,1.408-.033-.753.24-1.578.611-1.456.752-1.409" transform="translate(1.268 10.505)" fill="#455a64"/>
            <path id="Path_6289" data-name="Path 6289" d="M38.065,284.929c.141.048.03.754-.248,1.578s-.618,1.453-.759,1.405-.03-.753.249-1.578.618-1.453.758-1.405" transform="translate(1.337 10.297)" fill="#455a64"/>
            <path id="Path_6290" data-name="Path 6290" d="M40.03,279.177c.141.049.027.754-.255,1.577s-.625,1.451-.766,1.4-.027-.754.255-1.577.625-1.45.766-1.4" transform="translate(1.408 10.089)" fill="#455a64"/>
            <path id="Path_6291" data-name="Path 6291" d="M42.019,273.433c.141.049.024.754-.262,1.576s-.631,1.448-.772,1.4-.023-.754.262-1.576.631-1.447.772-1.4" transform="translate(1.479 9.881)" fill="#455a64"/>
            <path id="Path_6292" data-name="Path 6292" d="M44.034,267.7c.141.05.021.754-.268,1.575s-.637,1.445-.778,1.4-.02-.754.268-1.575.637-1.445.778-1.4" transform="translate(1.551 9.674)" fill="#455a64"/>
            <path id="Path_6293" data-name="Path 6293" d="M46.071,261.967c.14.05.018.755-.275,1.574s-.643,1.443-.783,1.394-.018-.755.275-1.575.643-1.442.783-1.393" transform="translate(1.625 9.467)" fill="#455a64"/>
            <path id="Path_6294" data-name="Path 6294" d="M48.129,256.245c.14.051.015.755-.281,1.573s-.648,1.441-.789,1.391-.015-.754.281-1.573.649-1.441.789-1.39" transform="translate(1.699 9.26)" fill="#455a64"/>
            <path id="Path_6295" data-name="Path 6295" d="M50.209,250.529c.14.051.011.755-.286,1.573s-.654,1.438-.794,1.387-.011-.755.286-1.573.654-1.438.794-1.387" transform="translate(1.773 9.054)" fill="#455a64"/>
            <path id="Path_6296" data-name="Path 6296" d="M52.306,244.82c.14.052.009.755-.291,1.572s-.658,1.437-.8,1.385-.009-.755.291-1.572.658-1.437.8-1.385" transform="translate(1.849 8.847)" fill="#455a64"/>
            <path id="Path_6297" data-name="Path 6297" d="M54.421,239.117c.14.052.007.755-.3,1.571s-.662,1.435-.8,1.383-.007-.755.3-1.571.662-1.435.8-1.383" transform="translate(1.925 8.641)" fill="#455a64"/>
            <path id="Path_6298" data-name="Path 6298" d="M56.552,233.419c.14.053.005.755-.3,1.57s-.666,1.434-.805,1.381-.005-.755.3-1.57.666-1.434.806-1.381" transform="translate(2.002 8.435)" fill="#455a64"/>
            <path id="Path_6299" data-name="Path 6299" d="M58.7,227.726c.14.053,0,.755-.3,1.57s-.669,1.431-.808,1.379,0-.755.3-1.57.67-1.432.809-1.379" transform="translate(2.079 8.23)" fill="#455a64"/>
            <path id="Path_6300" data-name="Path 6300" d="M60.858,222.038c.139.053,0,.755-.308,1.569s-.675,1.43-.812,1.377,0-.755.308-1.569.672-1.43.812-1.377" transform="translate(2.157 8.024)" fill="#455a64"/>
            <path id="Path_6301" data-name="Path 6301" d="M63.028,216.355c.139.053,0,.755-.311,1.569s-.676,1.429-.815,1.375,0-.755.312-1.569.676-1.428.814-1.375" transform="translate(2.235 7.819)" fill="#455a64"/>
            <path id="Path_6302" data-name="Path 6302" d="M65.21,210.676c.138.054,0,.755-.314,1.568s-.679,1.428-.819,1.374,0-.755.315-1.568.679-1.428.818-1.374" transform="translate(2.314 7.613)" fill="#455a64"/>
            <path id="Path_6303" data-name="Path 6303" d="M67.4,205c.139.054,0,.755-.316,1.567s-.681,1.427-.82,1.373,0-.755.316-1.567.681-1.427.82-1.373" transform="translate(2.393 7.408)" fill="#455a64"/>
            <path id="Path_6304" data-name="Path 6304" d="M69.6,199.328c.139.054,0,.755-.318,1.567s-.683,1.426-.822,1.372,0-.755.318-1.567.683-1.426.822-1.372" transform="translate(2.472 7.203)" fill="#455a64"/>
            <path id="Path_6305" data-name="Path 6305" d="M71.8,193.659c.139.054,0,.755-.32,1.567s-.684,1.424-.823,1.37,0-.755.32-1.566.684-1.425.823-1.371" transform="translate(2.552 6.998)" fill="#455a64"/>
            <path id="Path_6306" data-name="Path 6306" d="M74.013,187.992c.139.054-.005.755-.321,1.566s-.685,1.424-.824,1.37.005-.755.321-1.566.685-1.424.824-1.37" transform="translate(2.631 6.794)" fill="#455a64"/>
            <path id="Path_6307" data-name="Path 6307" d="M76.227,182.328c.139.054-.005.755-.322,1.566s-.686,1.423-.825,1.369.005-.755.322-1.566.686-1.423.825-1.369" transform="translate(2.711 6.589)" fill="#455a64"/>
            <path id="Path_6308" data-name="Path 6308" d="M78.443,176.667c.139.055-.007.754-.324,1.565s-.686,1.422-.825,1.368.005-.754.322-1.565.689-1.423.827-1.368" transform="translate(2.791 6.384)" fill="#455a64"/>
            <path id="Path_6309" data-name="Path 6309" d="M80.763,171.046c.137.06-.027.756-.365,1.555s-.723,1.4-.861,1.345.025-.752.365-1.555.724-1.4.861-1.345" transform="translate(2.873 6.181)" fill="#455a64"/>
            <path id="Path_6310" data-name="Path 6310" d="M83.378,165.555c.132.069-.075.755-.46,1.53s-.807,1.353-.943,1.29.071-.748.46-1.53.811-1.36.943-1.29" transform="translate(2.961 5.983)" fill="#455a64"/>
            <path id="Path_6311" data-name="Path 6311" d="M86.624,160.411c.115.094-.188.743-.677,1.45s-.991,1.216-1.118,1.14.175-.726.677-1.451,1-1.233,1.118-1.139" transform="translate(3.065 5.797)" fill="#455a64"/>
            <path id="Path_6312" data-name="Path 6312" d="M90.086,157.6c.04.144-.233.351-.587.541s-.7.291-.785.17.131-.434.534-.647.8-.207.839-.064" transform="translate(3.205 5.692)" fill="#455a64"/>
            <path id="Path_6313" data-name="Path 6313" d="M83.823,71.957l-37.06-1H8.97A9.15,9.15,0,0,0,0,80.277v25.629a108.485,108.485,0,0,0,12.33,51.006c6.98,13.1,17.792,26.595,34.434,35.17,15.3-5.747,26.718-21.067,33.7-34.17a108.5,108.5,0,0,0,12.329-51.006V81.277a9.149,9.149,0,0,0-8.969-9.32" transform="translate(0 2.564)" fill="#55deaa"/>
            <path id="Path_6314" data-name="Path 6314" d="M44.373,130.7,30.66,119.357l4.623-5.588,8.266,6.84,13.526-15.521,5.468,4.765Z" transform="translate(1.108 3.798)" fill="#fff"/>
            <g id="Group_9250" data-name="Group 9250" transform="translate(0 73.521)" opacity="0.3">
              <g id="Group_9249" data-name="Group 9249">
                <g id="Group_9248" data-name="Group 9248" clip-path="url(#clip-path-7)">
                  <path id="Path_6315" data-name="Path 6315" d="M83.824,71.956l-37.06-1H8.969A9.15,9.15,0,0,0,0,80.276V105.9a108.5,108.5,0,0,0,12.329,51.006c6.981,13.1,17.793,26.595,34.435,35.17,15.3-5.746,26.718-21.067,33.7-34.17A108.5,108.5,0,0,0,92.792,106.9V81.276a9.15,9.15,0,0,0-8.969-9.32M82.6,108.8a85.836,85.836,0,0,1-9.754,40.354C67.321,159.521,59.2,170.2,46.029,176.98c-13.167-6.785-20.986-17.459-26.51-27.826A85.836,85.836,0,0,1,9.766,108.8V88.524a7.239,7.239,0,0,1,7.1-7.374H75.5a7.239,7.239,0,0,1,7.1,7.374Z" transform="translate(0 -70.957)"/>
                </g>
              </g>
            </g>
          </g>
        </g>
      </g>
    </g>
    <text id="Login_successful_" data-name="Login successful!" transform="translate(188 513)" fill="#fff" font-size="32" font-family="OpenSans-Semibold, Open Sans" font-weight="600"><tspan x="0" y="0">Login successful!</tspan></text>
  </g>
</svg>
