<svg xmlns="http://www.w3.org/2000/svg" xmlns:xlink="http://www.w3.org/1999/xlink" width="578.227" height="394.377" viewBox="0 0 578.227 394.377">
  <defs>
    <clipPath id="clip-path">
      <rect id="Rectangle_5097" data-name="Rectangle 5097" width="578.227" height="394.377" fill="none"/>
    </clipPath>
  </defs>
  <g id="Group_9235" data-name="Group 9235" transform="translate(-11.904)">
    <g id="Group_9235-2" data-name="Group 9235" transform="translate(11.904)" clip-path="url(#clip-path)">
      <path id="Path_6147" data-name="Path 6147" d="M9.9,210.7c8.9-25.822,33.125-43.433,60.616-51.7,7.151-2.152,14.829-3.128,21.258-6.8,15.379-8.777,20.063-28.267,20.5-45.339C114.709,11.36,211.02-1.556,229.511.135,302.853,6.842,292.982,63.2,335.835,94.66c27.689,20.326,71.107-11.928,101.74,3.9,25.995,13.432,25.907,51.457,49.674,68.2,17.058,12.017,30.234-4.563,59.273,21.041,37.367,32.948,47.434,123.8-4.33,175.8L60.319,365.648C42.578,362.68-25.1,312.214,9.9,210.7" transform="translate(0.411 9.736)" fill="#d1e3ff" opacity="0.6"/>
      <path id="Path_6148" data-name="Path 6148" d="M42.309,210.8c-2.488-13.9-3.1-29.347,4.979-40.948,6.716-9.641,18.4-14.837,30.041-16.665,8.881-1.394,115.925-10.052,119.845-6.171,3.628,3.593,14.863,10.208,19.363,28.83,5.4,22.35,21.759,117.683,17.148,137.646C220.909,316.659,98.8,317.277,79.8,317.444c-.776-7.079-33.438-83.994-37.493-106.643" transform="translate(-0.988 46.942)" fill="#263238"/>
      <path id="Path_6149" data-name="Path 6149" d="M203.483,123.977c29.637,6.718,41.289,68.517,45.8,83.531a200.134,200.134,0,0,0,20.935,46.817c4.5,7.362,9.6,16.542,5.21,23.971-2.771,4.689-8.583,6.783-14.04,7.035-10.868.5-21.355-4.941-29.112-12.537S219.1,255.588,214.1,245.971c-14.827-28.476-23.527-50.025-30.3-81.386-.372-1.717-3.178-45.79,19.683-40.607" transform="translate(45.714 39.718)" fill="#db942b"/>
      <path id="Path_6150" data-name="Path 6150" d="M249.31,256.631c3.788,3.845,19.941,5.808,21.271,4.888-1.4-8.379-9.673-3.621-10.7-10.08,2.516-1.751,5.5-1.221,7.964-1.222,2.15,0,4.16,1.9,5.069,4.2,1.376,3.481.866,4.563,1.4,8.264.529,3.651,4.252,6.321,4.254,3.992,0-4.275.011-10.877.015-15.152,1.059,3.8,1.809,15.815,6.951,14.681,1.254-5.75-1.416-10.814-1.441-16.7,1.461,4.994,1.441,16.7,6.584,15.037.21-5.364-1.786-10.787-1.576-16.151,1.154,4.733,2.979,14.987,5.821,13.335.86-5.163-.555-10.626-1.675-15.74-.679-3.109-.512-6.121-2.781-8.361-1.395-1.378-21.084-5.179-29.253-4.7-5.153.3-11.7-.485-14.948,2.083-12.622,9.984-1.2,17.314,3.039,21.622" transform="translate(64.352 74.865)" fill="#ffbb8e"/>
      <path id="Path_6151" data-name="Path 6151" d="M101.71,187.165c6.742,32.652,29,36.828,33.145,69.905,2.765,22.074-6.5,49.421-12.809,70.761,51.221,1.794,103.081.863,140.936-.767C261.6,296.154,249.2,255.1,252.07,224.292c1.647-17.664,5.565-34.058,3.052-51.622s-10.127-43-18.961-45.53c-17.173-4.916-31.6-9.343-51.389-11.485-8.641-.936-34-3.567-55.894-.5-13.75,1.929-25.4,4.492-30.333,6.486-32.65,13.19-2.67,37.273,3.163,65.521" transform="translate(13.037 36.555)" fill="#e89f33"/>
      <path id="Path_6152" data-name="Path 6152" d="M171.888,161.142c3.236-.238,17.116-24.943,16.059-28-3.725-8.493-10.618.078-12.844-6.217-1.779-5.031,6.99-27.932,2.063-33.8-2.94-3.5-32.326-14.354-37.542-4.456-2.457,4.666-11.681,25.6-11.681,31.041,0,3.17,34.883,42.1,43.945,41.435" transform="translate(27.55 27.196)" fill="#edba95"/>
      <path id="Path_6153" data-name="Path 6153" d="M198.291,236.74c1.884,2.2,5.269,9.725,7.374,16.081.7,2.105,1.7,8.8,1.7,8.8-5.33,2.56-7.231-10.338-9.07-13.968-.54,3.99.234,18.856-1.17,18.728-5.141-1.269-4.586-12.442-4.205-17.8a61.639,61.639,0,0,1-2.508,10.2c-1.071,3.5-2.337,6.788-4.013,8.5-3.3-.543-1.088-10.824-.492-15.414-1.883,7.892-6.722,16.064-6.722,16.064-3.329,0-3.033-4.771-1.969-7.478s3.7-6.034,2.147-8.51c.325,2.38-4.528,5.809-6.851,6.453s-8.828-1.6-11.148-2.26c-11.076-3.14-36.731-2.021-33.305-14.3,2.347-8.418,13.138-15.378,20.917-14.2,6.834,1.036,16.371,9.1,24.076,9.1,13.791,0,19.722-2.1,25.244,0" transform="translate(27.484 73.135)" fill="#ffbb8e"/>
      <path id="Path_6154" data-name="Path 6154" d="M187.673,265.016c-13.888-7.83-71.723-33.109-72.227-34.379-1.931-4.867,25.573-50.8,27.3-64.353s1.469-25.418-8.267-35.043c-12.95-12.8-25.005-11.518-25.005-11.518-8.991,3.137-11.368,6.089-15.967,10.529-6.515,6.289-10.275,14.812-13.877,23.106-10.63,24.475-21.312,49.1-27.6,75.018-1.718,7.088-3.072,14.717-.45,21.527,1.762,4.577,5.186,8.346,8.979,11.473,15.314,12.625,36.179,15.659,55.9,18.215,20.444,2.65,41.653,8.559,62.1,11.209,4.208.544,13.522-23.3,9.116-25.784" transform="translate(2.104 38.475)" fill="#db942b"/>
      <path id="Path_6155" data-name="Path 6155" d="M117.644,120.732c-.016,5.411,4.3,10.555,6.571,15.47q5.756,12.48,11.511,24.957,7.367-9.6,14.736-19.2a68.643,68.643,0,0,0,25.31,17.527l13.7-17.643a80.714,80.714,0,0,0,7.342,15.885c2.663-12.987,4.954-27.793-3.033-38.4a23.938,23.938,0,0,0-15.935-9.221c-2.4,7.926,3.006,16.115,2.946,24.392-.048,6.725-3.672,12.842-7.183,18.589a139.618,139.618,0,0,1-13.193-9.421c-2.1-1.694-4.225-3.538-5.307-6.006-.926-2.113-1.03-4.56-2.256-6.516-1.263-2.011-3.5-3.164-5.316-4.7-7.481-6.294-12.249-18.532-12.249-25.45-5.8,0-17.617,9.356-17.646,19.731" transform="translate(24.183 32.468)" fill="#db942b"/>
      <path id="Path_6156" data-name="Path 6156" d="M161.444,150.376c5.877,34.39,11.365,69.344,9.718,104.68-.079,1.7,2.039,1.693,2.119,0,1.657-35.561-3.88-70.778-9.795-105.383-.284-1.662-2.326-.958-2.042.7" transform="translate(38.494 47.809)" fill="#263238"/>
      <path id="Path_6157" data-name="Path 6157" d="M172.051,77.251c-.884,5.464-.593,11.411,2.458,16.037s9.451,7.33,14.441,4.895c6.417-3.129,7.037-11.905,6.254-18.978-.494-4.463-1.269-9.113-3.984-12.7-9.06-11.966-17.709,1.715-19.169,10.744" transform="translate(41.828 19.874)" fill="#5a5c84"/>
      <path id="Path_6158" data-name="Path 6158" d="M140.985,107.516c5.539,11.26,16.32,20.238,28.782,22.033,4.939.711,10.275.225,14.391-2.583a24.622,24.622,0,0,0,6.541-7.456,86.057,86.057,0,0,0,13.226-41.938c.533-11.682-2.187-24.83-11.928-31.36-7.4-4.961-16.981-4.872-25.9-4.6-4.593.139-9.36.32-13.449,2.408C148.4,46.189,145.4,50.152,142.589,54c-10.219,13.957-9.2,38.075-1.6,53.519" transform="translate(29.891 13.343)" fill="#edba95"/>
      <path id="Path_6160" data-name="Path 6160" d="M165.689,64.526c.752,1.447.778,3.149,1.225,4.716a9,9,0,0,0,16.466,1.941,10.432,10.432,0,0,1,1.964-3.1c2.122-1.785,5.446-.27,7.286,1.8s3.016,5.319,5.73,5.914c7.82,1.715,9.615-3.73,10.831-8.76,1.181,3.536,9.4,2.228,11.9-.544s2.106-7.306-.049-10.355-5.651-4.866-9.16-6.165a10.838,10.838,0,0,1-3.648-1.843c-3.646-3.313-.551-9.4-1.655-14.189-1.234-5.356-8.423-7.958-13.266-5.32-3.613,1.969-5.921,6.036-9.835,7.312-.115-.9-12.707-5.771-12.853-2.416,0,0-5.377-3.725-13.836-1.6-4.115,1.032-7.927,4.769-7.956,9-3.84-.8-4.6-.732-8.366.379S133.3,45.483,132.9,49.37a31.825,31.825,0,0,1-.228,4.189c-.841,3.522-5.195,4.755-6.245,7.869-1.529,4.534.474,8.673,1.111,13.471,1.042,7.853-.589,14.7,9.514,14.083,6.7-.411,12.026,2.866,14.287-2.6,1.073-2.6,7.319-35.365,14.351-21.856" transform="translate(26.87 8.867)" fill="#241f3f"/>
      <path id="Path_6161" data-name="Path 6161" d="M124.153,74.149c-.884,5.464-.157,12.724,2.893,17.352S136.5,98.83,141.488,96.4c6.416-3.129,7.037-11.905,6.254-18.978-.495-4.464-1.27-9.113-3.985-12.7-9.06-11.967-18.145.4-19.6,9.429" transform="translate(26.196 19.215)" fill="#5a5c84"/>
      <path id="Path_6162" data-name="Path 6162" d="M136.552,74.1c.19-11.26,2.783-24.037,12.481-31.082,6.831-4.962,20.16-9.8,32.78-8.083,0,0-3.455-3.185-7.016-3.762a39.1,39.1,0,0,0-29.2,7.421c-11.089,8.126-14.439,22.486-14.659,35.506-.06,3.6,5.549,3.6,5.61,0" transform="translate(28.53 9.871)" fill="#5a5c84"/>
      <path id="Path_6163" data-name="Path 6163" d="M132.916,80.658c2.231,13.923,14.1,26.211,28.407,27.51,1.7.153,1.689-2.49,0-2.643-13.185-1.2-23.817-12.895-25.849-25.57-.268-1.674-2.825-.963-2.558.7" transform="translate(29.169 25.395)" fill="#5a5c84"/>
      <path id="Path_6164" data-name="Path 6164" d="M165.468,100.821a6.239,6.239,0,1,1-6.239-6.212,6.226,6.226,0,0,1,6.239,6.212" transform="translate(35.739 30.413)" fill="#5a5c84"/>
      <path id="Path_6166" data-name="Path 6166" d="M125.991,81.566c.046,2.82.35,5.956,2.46,7.836a5.678,5.678,0,0,0,8.349-1.415,10.564,10.564,0,0,0,.977-4.522,43.385,43.385,0,0,0-.482-12.113c-.735-3.3-2.74-6.881-6.109-7.309-5.356-.681-5.248,14.374-5.2,17.523" transform="translate(26.908 20.581)" fill="#424262"/>
      <path id="Path_6167" data-name="Path 6167" d="M164.766,76.082c0,2.212-1.1,4-2.455,4s-2.454-1.792-2.454-4,1.1-4.005,2.454-4.005,2.455,1.793,2.455,4.005" transform="translate(37.984 23.17)" fill="#241f3f"/>
      <path id="Path_6168" data-name="Path 6168" d="M182.237,76.9c0,2.212-1.1,4-2.455,4s-2.454-1.792-2.454-4,1.1-4,2.454-4,2.455,1.792,2.455,4" transform="translate(43.696 23.434)" fill="#241f3f"/>
      <path id="Path_6169" data-name="Path 6169" d="M157.347,70.167a7.041,7.041,0,0,1,7.585-1.686c1.61.576,2.3-1.977.7-2.549A9.678,9.678,0,0,0,155.47,68.3c-1.2,1.216.679,3.087,1.876,1.869" transform="translate(36.425 21.014)" fill="#241f3f"/>
      <path id="Path_6170" data-name="Path 6170" d="M178.408,69.141a11.518,11.518,0,0,1,5.555,2.121c1.4.982,2.726-1.31,1.339-2.282a14.19,14.19,0,0,0-6.893-2.482c-1.7-.165-1.688,2.479,0,2.643" transform="translate(43.634 21.374)" fill="#241f3f"/>
      <path id="Path_6171" data-name="Path 6171" d="M555.843,291.446H28.143a11.477,11.477,0,0,1-11.5-11.453v-1.3a11.477,11.477,0,0,1,11.5-11.453h527.7a11.477,11.477,0,0,1,11.5,11.453v1.3a11.477,11.477,0,0,1-11.5,11.453" transform="translate(-8.84 85.907)" fill="#b48669"/>
      <path id="Path_6172" data-name="Path 6172" d="M532.89,285.557H37.474v.917A16.14,16.14,0,0,0,53.647,302.58h463.07a16.14,16.14,0,0,0,16.173-16.106Z" transform="translate(-2.029 91.797)" fill="#9e765c"/>
      <path id="Path_6173" data-name="Path 6173" d="M400.961,261.013H215.073a12.14,12.14,0,0,1-12.1-13.408L214.4,141.025a12.151,12.151,0,0,1,12.1-10.833H412.388a12.139,12.139,0,0,1,12.1,13.408L413.065,250.178a12.153,12.153,0,0,1-12.1,10.835" transform="translate(52.057 41.852)" fill="#424262"/>
      <path id="Path_6174" data-name="Path 6174" d="M406.245,261.013H220.357a12.139,12.139,0,0,1-12.1-13.408l11.425-106.58a12.151,12.151,0,0,1,12.1-10.833H417.672a12.139,12.139,0,0,1,12.1,13.408L418.348,250.178a12.153,12.153,0,0,1-12.1,10.835" transform="translate(53.785 41.852)" fill="#5a5c84"/>
      <path id="Path_6175" data-name="Path 6175" d="M298.942,188.049H286.681a8.344,8.344,0,0,0-8.361,8.328v88.869H307.3V196.377a8.345,8.345,0,0,0-8.362-8.328" transform="translate(76.715 60.451)" fill="#424262"/>
      <rect id="Rectangle_5095" data-name="Rectangle 5095" width="93.498" height="7.449" transform="translate(321.375 345.696)" fill="#424262"/>
      <rect id="Rectangle_5096" data-name="Rectangle 5096" width="110.05" height="7.449" transform="translate(223.48 345.696)" fill="#5a5c84"/>
      <path id="Path_6176" data-name="Path 6176" d="M151.179,254.555H140.771A12.768,12.768,0,0,0,127.977,267.3a4.024,4.024,0,0,0,4.033,4.017h27.931a4.025,4.025,0,0,0,4.033-4.017,12.769,12.769,0,0,0-12.794-12.743" transform="translate(27.561 81.83)" fill="#424262"/>
      <path id="Path_6177" data-name="Path 6177" d="M438.988,298.946c-19.433-4.174-27.109-11.98-27.109-11.98" transform="translate(-237.062 -155.761)" fill="none" stroke="#e28e60" stroke-linecap="round" stroke-width="1"/>
      <path id="Path_6178" data-name="Path 6178" d="M.013,17.184A13.821,13.821,0,0,1,3.4,16.761c.529-.026,1.035-.1,1.143-.456a2.658,2.658,0,0,0-.264-1.575q-.637-1.947-1.335-4.083C1.1,4.838-.208.073.027,0S1.95,4.578,3.8,10.388c.443,1.432.866,2.8,1.269,4.1a3.035,3.035,0,0,1,.158,2.076,1.329,1.329,0,0,1-.91.721,3.619,3.619,0,0,1-.9.076,13.506,13.506,0,0,1-3.4-.179" transform="matrix(0.978, 0.208, -0.208, 0.978, 212.367, 102.048)" fill="#263238"/>
      <path id="Path_6179" data-name="Path 6179" d="M294.014,68.783c-.06-.3-2.033.214-3.876-1.1s-2.18-3.46-2.46-3.4c-.131.005-.259.566-.05,1.456a5.055,5.055,0,0,0,1.942,2.87,4.435,4.435,0,0,0,3.217.795c.845-.141,1.274-.489,1.228-.62" transform="translate(-84.859 56.742)" fill="#263238"/>
    </g>
  </g>
</svg>
