<svg xmlns="http://www.w3.org/2000/svg" width="120" height="120" viewBox="0 0 120 120">
  <g id="Group_2579" data-name="Group 2579" transform="translate(-227 -575)">
    <g id="Group_1458" data-name="Group 1458" transform="translate(267.001 617.501)">
      <g id="Group_1457" data-name="Group 1457">
        <path id="Path_1429" data-name="Path 1429" d="M174.036,137.466a5,5,0,0,0-7.07,0L145.5,158.929l-8.965-8.962a5,5,0,0,0-7.07,7.07l12.5,12.5a5,5,0,0,0,7.07,0l25-25A5,5,0,0,0,174.036,137.466Z" transform="translate(-128.002 -136.002)" fill="#69b76f"/>
      </g>
    </g>
    <g id="Group_1459" data-name="Group 1459" transform="translate(227 575)">
      <path id="Path_1430" data-name="Path 1430" d="M115,55a5,5,0,0,0-5,5A50,50,0,1,1,95.483,24.77a5,5,0,1,0,7.095-7.045A60,60,0,1,0,120,60,5,5,0,0,0,115,55Z" transform="translate(0 0)" fill="#69b76f"/>
    </g>
  </g>
</svg>
